<?xml version="1.0" encoding="utf-8"?>
<!-- Generator: Adobe Illustrator 21.1.0, SVG Export Plug-In . SVG Version: 6.00 Build 0)  -->
<svg version="1.1" xmlns="http://www.w3.org/2000/svg" xmlns:xlink="http://www.w3.org/1999/xlink" x="0px" y="0px"
	 viewBox="0 0 1417.3 1417.3" style="enable-background:new 0 0 1417.3 1417.3;" xml:space="preserve">
<style type="text/css">
	.st0{fill:url(#SVGID_1_);}
	.st1{fill:url(#SVGID_2_);}
	.st2{opacity:0.7;fill:url(#SVGID_3_);}
	.st3{opacity:0.49;}
	.st4{fill:#FFFFFF;}
	.st5{fill:none;stroke:#EC9646;stroke-width:2;stroke-miterlimit:1;}
	.st6{opacity:0.58;}
	.st7{fill:#EC9644;}
	.st8{display:none;}
	.st9{display:inline;}
	.st10{fill:#F4F4F4;}
	.st11{fill:#EEEEEE;}
	.st12{fill:#FAFAFA;}
	.st13{fill:#A9A9A9;}
	.st14{fill:#F8F8F8;}
	.st15{fill:#AEAEAE;}
	.st16{fill:#C8C8C8;}
	.st17{fill:#AFAFAF;}
	.st18{fill:#DADADA;}
	.st19{fill:#BBBBBB;}
	.st20{fill:#B6B6B6;}
	.st21{fill:#B7B7B7;}
	.st22{fill:#B4B4B4;}
	.st23{fill:#DDDDDD;}
	.st24{fill:#FDFDFD;}
	.st25{fill:#FEFEFE;}
	.st26{fill:#F7F7F7;}
	.st27{fill:#F5F5F5;}
	.st28{fill:#D7D7D7;}
	.st29{fill:#F3F3F3;}
	.st30{fill:#E4E4E4;}
	.st31{fill:#B8B8B8;}
	.st32{fill:#E9E9E9;}
	.st33{fill:#D3D3D3;}
	.st34{fill:#CBCBCB;}
	.st35{fill:#E3E3E3;}
	.st36{fill:#DBDBDB;}
	.st37{fill:#F9F9F9;}
	.st38{fill:#DFDFDF;}
	.st39{fill:#C9C9C9;}
	.st40{fill:#F0F0F0;}
	.st41{fill:#EFEFEF;}
	.st42{fill:#CCCCCC;}
	.st43{fill:#E8E8E8;}
	.st44{fill:#C3C3C3;}
	.st45{fill:#A8A8A8;}
	.st46{fill:#B9B9B9;}
	.st47{fill:#ABABAB;}
	.st48{fill:#E1E1E1;}
	.st49{display:inline;opacity:0.61;}
	.st50{fill:#958E85;}
	.st51{fill:#BAAA8B;}
	.st52{fill:#A89478;}
	.st53{fill:#C9BB97;}
	.st54{fill:#DFD2BC;}
	.st55{fill:#D8CCAD;}
	.st56{fill:#C4B695;}
	.st57{fill:#D5C8A9;}
	.st58{fill:#C8BC9D;}
	.st59{fill:#B5A788;}
	.st60{fill:#B6A687;}
	.st61{fill:#BCAD8A;}
	.st62{fill:#F0E9C6;}
	.st63{fill:#E7DFC3;}
	.st64{fill:#CECABF;}
	.st65{fill:#D4CEC5;}
	.st66{fill:#B4ACA3;}
	.st67{fill:#FAF9E6;}
	.st68{fill:#6E5E45;}
	.st69{fill:#5F4E3E;}
	.st70{fill:#F7F5D3;}
	.st71{fill:#EDE8D3;}
	.st72{fill:#F5F4D9;}
	.st73{fill:#84765D;}
	.st74{fill:#71624B;}
	.st75{fill:#F4F2DD;}
	.st76{fill:#F3F2E1;}
	.st77{fill:#7D6F5C;}
	.st78{fill:#BCAC8B;}
	.st79{fill:#87775B;}
	.st80{fill:#5B4B39;}
	.st81{fill:#201D19;}
	.st82{fill:#DCD5BE;}
	.st83{fill:#BFBBB1;}
	.st84{fill:#BDB19A;}
	.st85{fill:#735532;}
	.st86{fill:#A3998A;}
	.st87{fill:#413625;}
	.st88{fill:#7C6C54;}
	.st89{fill:#F7F7DF;}
	.st90{fill:#BDB3A0;}
	.st91{fill:#2E271E;}
	.st92{fill:#AA906B;}
	.st93{fill:#493421;}
	.st94{fill:#E8DFB8;}
	.st95{fill:#97754D;}
	.st96{fill:#715231;}
	.st97{fill:#443322;}
	.st98{fill:#A99D90;}
	.st99{fill:#D5CDC1;}
	.st100{fill:#504538;}
	.st101{fill:#C2B99D;}
	.st102{fill:#BCA881;}
	.st103{fill:#BEAB8C;}
	.st104{fill:#C2B898;}
	.st105{fill:#B9A784;}
	.st106{fill:#BCA985;}
	.st107{fill:#B9A380;}
	.st108{fill:#C1AD8B;}
	.st109{fill:#C7BDA2;}
	.st110{fill:#BDAA88;}
	.st111{fill:#C5B18E;}
	.st112{fill:#CCC09E;}
	.st113{fill:#AF9B74;}
	.st114{fill:#7E7362;}
	.st115{fill:#7C6A57;}
	.st116{fill:#877357;}
	.st117{fill:#665542;}
	.st118{fill:#745E43;}
	.st119{fill:#5F4F3D;}
	.st120{fill:#615445;}
	.st121{fill:#5D4C36;}
	.st122{fill:#665440;}
	.st123{fill:#6E5C40;}
	.st124{fill:#665441;}
	.st125{fill:#564738;}
	.st126{fill:#78654B;}
	.st127{fill:#574636;}
	.st128{fill:#4B3826;}
	.st129{fill:#BFAE90;}
	.st130{fill:#D0C2A9;}
	.st131{fill:#8E744F;}
	.st132{fill:#A5906B;}
	.st133{fill:#B9B0A0;}
	.st134{fill:#6B5C47;}
	.st135{fill:#7C6141;}
	.st136{fill:#C2B08B;}
	.st137{fill:#755838;}
	.st138{fill:#775C39;}
	.st139{fill:#B9AA89;}
	.st140{fill:#9C8969;}
	.st141{fill:#F1EED4;}
	.st142{fill:#645542;}
	.st143{fill:#E6E0C9;}
	.st144{fill:#7D6D55;}
	.st145{fill:#736654;}
	.st146{fill:#7E7160;}
	.st147{fill:#B6AFA1;}
	.st148{fill:#AAA191;}
	.st149{fill:#C3B7A4;}
	.st150{fill:#C4B58C;}
	.st151{fill:#B6AC99;}
	.st152{fill:#938C81;}
	.st153{fill:#AD9169;}
	.st154{fill:#936734;}
	.st155{fill:#A4865C;}
	.st156{fill:#F0EBC3;}
	.st157{fill:#C2AB83;}
	.st158{fill:#B3976A;}
	.st159{fill:#DECEAF;}
	.st160{fill:#574128;}
	.st161{fill:#816A4C;}
	.st162{fill:#CEC196;}
	.st163{fill:#877D6F;}
	.st164{fill:#9D8868;}
	.st165{fill:#B49870;}
	.st166{fill:#C3AD87;}
	.st167{fill:#7E7667;}
	.st168{fill:#EAE5C2;}
	.st169{fill:#DCD6CA;}
	.st170{fill:#ABA090;}
	.st171{fill:#8B7B65;}
	.st172{fill:#BEA580;}
	.st173{fill:#B3A082;}
	.st174{fill:#645747;}
	.st175{fill:#857B6B;}
	.st176{fill:#AFA182;}
	.st177{fill:#766A55;}
	.st178{fill:#66533D;}
	.st179{fill:#6A6356;}
	.st180{fill:#D8CB9F;}
	.st181{fill:#665743;}
	.st182{fill:#ECE6BD;}
	.st183{fill:none;}
	.st184{fill:#00A0E9;}
	.st185{fill:#215343;}
	.st186{display:inline;fill:none;stroke:#1D2088;stroke-width:4.1726;stroke-miterlimit:10;}
	.st187{fill:#8D8CAD;stroke:#040000;stroke-width:1.3459;stroke-miterlimit:10;}
	.st188{fill:#CBE5CD;}
	.st189{fill:none;stroke:#040000;stroke-width:1.3459;stroke-miterlimit:10;}
	.st190{fill:#8D8CAD;stroke:#000000;stroke-width:1.3459;stroke-miterlimit:10;}
	.st191{fill:none;stroke:#040000;stroke-width:1.3459;stroke-linecap:round;stroke-linejoin:round;stroke-miterlimit:10;}
	.st192{fill:#040000;}
	.st193{fill:none;stroke:#000000;stroke-width:1.3459;stroke-linecap:round;stroke-linejoin:round;stroke-miterlimit:10;}
	.st194{clip-path:url(#SVGID_5_);}
	.st195{clip-path:url(#SVGID_7_);}
	.st196{fill:#8D8CAD;}
	.st197{fill:#E5A949;}
	.st198{fill:#E3AF5E;}
	.st199{fill:#575024;}
	.st200{fill:#70BA2B;}
	.st201{fill:#562813;}
	.st202{fill:#9D4323;}
	.st203{fill:#5E6A37;}
	.st204{fill:#AC7221;}
	.st205{display:inline;fill:#FFFFFF;stroke:#000000;stroke-miterlimit:10;}
	.st206{fill:#944223;}
	.st207{fill:#D69645;}
	.st208{fill:#B22323;}
	.st209{fill:#742031;}
	.st210{fill:#F39800;}
	.st211{fill:none;stroke:#040000;stroke-width:0.5765;stroke-miterlimit:10;}
	.st212{fill:none;stroke:#040000;stroke-width:1.7296;stroke-miterlimit:10;}
	.st213{fill:none;stroke:#040000;stroke-width:1.7296;stroke-linecap:round;stroke-linejoin:round;stroke-miterlimit:10;}
	.st214{fill:none;stroke:#000000;stroke-width:1.7296;stroke-linecap:round;stroke-linejoin:round;stroke-miterlimit:10;}
	.st215{clip-path:url(#SVGID_8_);}
	.st216{fill:#6AB82D;}
	.st217{fill:#E83828;}
	.st218{clip-path:url(#SVGID_9_);}
	.st219{fill:#604C3F;stroke:#040000;stroke-width:1.7296;stroke-miterlimit:10;}
	.st220{stroke:#FFFFFF;stroke-width:0.5765;stroke-miterlimit:10;}
	.st221{fill:#7A6A56;stroke:#040000;stroke-width:1.7296;stroke-miterlimit:10;}
	.st222{fill:#E83828;stroke:#040000;stroke-width:1.7296;stroke-linecap:round;stroke-linejoin:round;stroke-miterlimit:10;}
	.st223{fill:#00A0E9;stroke:#040000;stroke-width:1.7296;stroke-miterlimit:10;}
	.st224{clip-path:url(#SVGID_11_);}
	.st225{clip-path:url(#SVGID_13_);}
</style>
<symbol  id="照亮橘色橢圓邊框組織" viewBox="-20 -10.5 39.9 21">
	<g>
		<linearGradient id="SVGID_1_" gradientUnits="userSpaceOnUse" x1="-2.000000e-04" y1="-9.4844" x2="-2.000000e-04" y2="9.4844">
			<stop  offset="0" style="stop-color:#E6670F"/>
			<stop  offset="0.618" style="stop-color:#EC9443"/>
			<stop  offset="0.6292" style="stop-color:#EC9644"/>
			<stop  offset="0.9831" style="stop-color:#EA9041"/>
		</linearGradient>
		<path class="st0" d="M-19,0c0,5.2,4.5,9.5,10,9.5H9c5.5,0,10-4.3,10-9.5S14.5-9.5,9-9.5H-9C-14.5-9.5-19-5.2-19,0z"/>
		<linearGradient id="SVGID_2_" gradientUnits="userSpaceOnUse" x1="-2.000000e-04" y1="-9.4844" x2="-2.000000e-04" y2="9.4844">
			<stop  offset="0" style="stop-color:#DC8330"/>
			<stop  offset="0.618" style="stop-color:#C95F29"/>
			<stop  offset="0.8278" style="stop-color:#D68030;stop-opacity:0.4"/>
			<stop  offset="0.9831" style="stop-color:#FFFFFF;stop-opacity:0"/>
		</linearGradient>
		<path class="st1" d="M-19,0c0,5.2,4.5,9.5,10,9.5H9c5.5,0,10-4.3,10-9.5S14.5-9.5,9-9.5H-9C-14.5-9.5-19-5.2-19,0z"/>
		<linearGradient id="SVGID_3_" gradientUnits="userSpaceOnUse" x1="-2.000000e-04" y1="9.4844" x2="-2.000000e-04" y2="-9.4844">
			<stop  offset="0" style="stop-color:#FFFFFF;stop-opacity:0.77"/>
			<stop  offset="0.2033" style="stop-color:#FFFFFF;stop-opacity:0.65"/>
			<stop  offset="0.3448" style="stop-color:#FFFFFF;stop-opacity:0.65"/>
			<stop  offset="0.3462" style="stop-color:#FFFFFF;stop-opacity:0.65"/>
			<stop  offset="0.511" style="stop-color:#FFFFFF;stop-opacity:0"/>
			<stop  offset="0.5328" style="stop-color:#FBE7D7;stop-opacity:7.145510e-03"/>
			<stop  offset="0.5572" style="stop-color:#F7D1B3;stop-opacity:1.510375e-02"/>
			<stop  offset="0.5846" style="stop-color:#F4BD93;stop-opacity:2.407413e-02"/>
			<stop  offset="0.6148" style="stop-color:#F1AD77;stop-opacity:3.397834e-02"/>
			<stop  offset="0.6491" style="stop-color:#EFA061;stop-opacity:4.517511e-02"/>
			<stop  offset="0.689" style="stop-color:#ED9550;stop-opacity:5.824824e-02"/>
			<stop  offset="0.7384" style="stop-color:#EC8E45;stop-opacity:7.441081e-02"/>
			<stop  offset="0.8077" style="stop-color:#EB8A3E;stop-opacity:9.707668e-02"/>
			<stop  offset="1" style="stop-color:#EB893C;stop-opacity:0.16"/>
		</linearGradient>
		<path class="st2" d="M-19,0c0,5.2,4.5,9.5,10,9.5H9c5.5,0,10-4.3,10-9.5S14.5-9.5,9-9.5H-9C-14.5-9.5-19-5.2-19,0z"/>
		<g class="st3">
			<path class="st4" d="M-9-7c-4.9,0.4-8.4,3.3-8.8,8.3c0-0.8,0-1.6,0-2.5C-16.9,8.3-7,7,0,7c7,0,16.9,1.3,17.8-8.3
				c0,0.8,0,1.6,0,2.5C16.8-10.5-0.9-7-9-7c0,0,0-2.5,0-2.5c3.5,0,7,0,10.5,0C5-9.5,9.7-10.2,13-8.6c3.6,1.7,4.8,5.2,4.8,8.9
				C17.7,5.7,14.3,9.2,9,9.5c-3.5,0.2-7,0-10.5,0c-3.2,0-7.1,0.6-10.3-0.4c-4.4-1.4-6.1-5.2-6-9.4c0.1-5.3,3.5-8.8,8.8-9.2
				C-9-9.5-8.9-7.1-9-7z"/>
		</g>
		<path class="st5" d="M-19,0c0,5.2,4.5,9.5,10,9.5H9c5.5,0,10-4.3,10-9.5S14.5-9.5,9-9.5H-9C-14.5-9.5-19-5.2-19,0z"/>
		<g class="st6">
			<path class="st7" d="M-19-0.2c0.7,10.3,10.9,9.5,18.5,9.5c7.3,0,19.1,1.3,19.1-9.3C18.6-10.4,7.3-9.3,0-9.3
				c-7.7,0-18.2-1.1-19,9.5C-19,0.1-19-0.1-19-0.2c0.8-11.4,13.4-9.5,21.4-9.5C9.4-9.7,19-9.6,19,0c0,9.6-9.5,9.7-16.5,9.7
				c-8.1,0-20.6,1.9-21.4-9.5C-19,0.1-19-0.1-19-0.2z"/>
		</g>
	</g>
</symbol>
<g id="圖層_1" class="st8">
</g>
<g id="網格" class="st8">
</g>
<g id="_x30_03" class="st8">
</g>
<g id="top-b" class="st8">
</g>
<g id="_x30_02" class="st8">
</g>
<g id="_x30_01">
	<polygon class="st183" points="708.7,54 141.7,381.3 141.7,1036 708.7,1363.3 1275.6,1036 1275.6,381.3 	"/>
	<g id="XMLID_17_">
		<g>
			<polygon class="st4" points="466,848.8 613.1,708.7 466,568.5 660.9,625.9 708.7,428.4 756.5,625.9 951.4,568.5 804.3,708.7 
				951.4,848.8 756.5,791.4 708.7,988.9 660.9,791.4 			"/>
			<polygon class="st4" points="708.7,103.7 1232.6,406.2 1232.6,1011.1 			"/>
			<polygon class="st4" points="1232.6,1011.1 708.7,1313.6 184.8,1011.1 			"/>
			<polygon class="st4" points="708.7,103.7 184.8,1011.1 184.8,406.2 			"/>
		</g>
	</g>
	<g id="text" class="st8">
	</g>
	<g id="text_x3E_pic">
	</g>
</g>
<g id="色票2.0">
</g>
<g id="色票" class="st8">
</g>
<g id="Bup" class="st8">
</g>
</svg>
